<?xml version="1.0" encoding="utf-8"?>
<!-- Generator: Adobe Illustrator 16.0.0, SVG Export Plug-In . SVG Version: 6.00 Build 0)  -->
<!DOCTYPE svg PUBLIC "-//W3C//DTD SVG 1.1//EN" "http://www.w3.org/Graphics/SVG/1.1/DTD/svg11.dtd">
<svg version="1.1" id="Layer_1" xmlns="http://www.w3.org/2000/svg" xmlns:xlink="http://www.w3.org/1999/xlink" x="0px" y="0px"
	 width="300px" height="300px" viewBox="0 0 300 300" enable-background="new 0 0 300 300" xml:space="preserve">
<g>
	<path fill="#177E89" d="M293.531,176.735c-0.219-1.176-0.561-2.321-1.023-3.439c-0.465-1.12-1.052-2.334-1.761-3.644
		c-0.219,1.91-0.532,3.67-0.941,5.281c-0.409,1.609-1.16,3.261-2.252,4.954c-1.146,1.638-2.512,2.974-4.094,4.012
		c-1.584,1.037-3.289,1.855-5.118,2.456s-3.713,1.051-5.649,1.352c-1.938,0.299-3.808,0.477-5.609,0.532
		c-5.077,0.217-10.222,0.04-15.435-0.532c-5.214-0.573-10.276-1.243-15.189-2.007c-8.079-1.201-16.772-2.333-26.08-3.397
		s-18.833-1.965-28.577-2.702c-9.744-0.736-19.502-1.269-29.272-1.597c-9.772-0.327-19.161-0.368-28.168-0.123
		c-9.007,0.246-17.428,0.819-25.261,1.72c-7.834,0.901-14.698,2.196-20.594,3.89c-0.71,0.327-1.297,0.463-1.76,0.409
		c-0.465-0.056-0.86-0.219-1.188-0.491c-0.328-0.274-0.573-0.601-0.737-0.982c-0.164-0.383-0.274-0.766-0.328-1.146
		c0.545-2.783,1.255-5.91,2.129-9.376c0.873-3.467,1.828-7.028,2.866-10.686c1.036-3.656,2.115-7.247,3.234-10.768
		c1.118-3.521,2.197-6.728,3.234-9.621c2.948-0.218,5.268-0.368,6.96-0.45c1.691-0.082,3.071-0.082,4.135,0
		c0.731,0.056,1.379,0.174,1.955,0.347c-0.385,1.042-0.747,2.105-1.055,3.215c-0.955,3.439-1.27,6.852-0.942,10.235
		c0.11,1.146,0.71,2.471,1.802,3.972c1.092,1.502,2.415,2.936,3.971,4.299c1.556,1.364,3.194,2.524,4.913,3.48
		c1.72,0.954,3.261,1.433,4.626,1.433c1.747,0,3.466-0.424,5.159-1.27c1.691-0.848,3.316-1.952,4.872-3.316s3.001-2.919,4.339-4.667
		c1.337-1.747,2.552-3.493,3.644-5.241c2.359-0.256,4.721-0.928,7.082-2.004c-0.762,2.015-1.405,3.78-1.924,5.28
		c-0.544,1.584-0.818,2.675-0.818,3.274c0,0.492,0.52,1.188,1.556,2.089c1.038,0.9,2.211,1.773,3.521,2.62
		c1.31,0.846,2.552,1.597,3.725,2.252c1.173,0.654,1.924,0.982,2.252,0.982c0.217-0.71,0.655-1.748,1.31-3.112
		c0.655-1.364,1.474-2.934,2.457-4.708c0.983-1.773,2.074-3.685,3.275-5.731c1.2-2.047,2.429-4.094,3.685-6.142
		c1.256-2.047,2.511-4.039,3.767-5.977s2.401-3.672,3.439-5.2c-0.819,2.456-1.679,5.009-2.579,7.656
		c-0.901,2.648-1.748,5.173-2.539,7.574c-0.791,2.402-1.446,4.532-1.965,6.387c-0.52,1.856-0.777,3.193-0.777,4.012
		c0,0.492,0.531,1.215,1.596,2.17c1.064,0.954,2.265,1.925,3.604,2.907c1.337,0.982,3.027,1.829,4.256,2.538
		c1.228,0.709,1.741,1.064,2.741,1.064v-0.082c0,0-0.217,0.013-0.162,0.042c0.054,0.026-0.067,0.04,0.041,0.04
		c0.165,0,0.484-0.423,1.169-1.269c0.682-0.848,1.505-1.952,2.569-3.316c1.064-1.365,2.226-2.921,3.535-4.667
		c1.311-1.747,2.608-3.548,3.918-5.404c0.549-0.751,1.107-1.528,1.68-2.316c0.314,1.373,0.823,2.626,1.546,3.749
		c1.281,1.993,2.892,3.631,4.829,4.913c1.938,1.281,4.011,2.224,6.222,2.824c2.21,0.601,4.243,0.901,6.1,0.901
		c1.528,0,3.235-0.532,5.118-1.597c0.177-0.1,0.355-0.216,0.534-0.321c0.01,1.401,0.458,2.737,1.349,4.006
		c0.901,1.282,2.116,2.428,3.644,3.439c1.529,1.009,3.29,1.813,5.282,2.415c1.993,0.601,4.081,0.901,6.264,0.901
		c3.329,0,6.224-0.492,8.68-1.475s4.476-2.211,6.06-3.685c1.582-1.475,2.77-3.07,3.562-4.79c0.791-1.72,1.188-3.316,1.188-4.79
		s-0.246-2.947-0.737-4.422c-0.491-1.474-1.052-2.934-1.679-4.381c-0.628-1.445-1.188-2.878-1.678-4.299
		c-0.492-1.419-0.737-2.811-0.737-4.176c0-2.238,0.381-3.943,1.146-5.117c0.764-1.174,1.608-2.061,2.538-2.662
		c0.927-0.6,1.773-1.036,2.538-1.31c0.495-0.177,0.813-0.379,0.987-0.603c0.445-0.102,0.941-0.201,1.51-0.299
		c1.282-0.217,3.07-0.299,5.363-0.245c-1.093,3.767-2.062,7.479-2.907,11.136c-0.847,3.658-1.474,7.029-1.883,10.112
		c-0.409,3.085-0.545,5.746-0.409,7.984c0.137,2.237,0.669,3.793,1.597,4.667c2.183,2.183,4.325,3.794,6.428,4.831
		c2.101,1.036,3.971,1.732,5.608,2.088c1.638,0.354,2.948,0.463,3.931,0.328c0.982-0.138,1.474-0.26,1.474-0.369
		c0-0.327-0.327-0.751-0.982-1.27c-0.654-0.52-1.379-1.269-2.17-2.251c-0.792-0.983-1.515-2.266-2.17-3.849
		c-0.655-1.584-0.982-3.603-0.982-6.06c0-1.638,0.136-3.466,0.409-5.485c0.272-2.02,0.642-4.162,1.105-6.428
		c0.463-2.266,1.023-4.586,1.679-6.961c0.655-2.374,1.364-4.762,2.129-7.164c0.655,0.109,1.31,0.218,1.965,0.327
		c0.655,0.11,1.364,0.245,2.129,0.409c0.492,0.055,1.064-0.272,1.72-0.982c0.655-0.709,1.282-1.568,1.884-2.579
		c0.6-1.01,1.159-2.088,1.679-3.234c0.518-1.146,0.913-2.142,1.187-2.989c0.272-0.846,0.382-1.46,0.328-1.842
		c-0.056-0.382-0.328-0.3-0.818,0.245c-0.438,0.438-1.243,0.696-2.416,0.778c-1.175,0.082-2.553,0.068-4.135-0.041
		c0.981-2.401,1.787-4.394,2.415-5.978c0.627-1.583,1.404-3.111,2.333-4.586c0.219-0.436,0.136-1.023-0.245-1.76
		c-0.383-0.737-0.941-1.501-1.679-2.293c-0.737-0.791-1.556-1.583-2.456-2.375c-0.9-0.79-1.789-1.459-2.661-2.006
		c-0.874-0.545-1.652-0.941-2.334-1.188c-0.683-0.245-1.134-0.258-1.352-0.041c-1.201,2.13-2.347,4.709-3.438,7.738
		c-1.093,3.03-2.348,6.646-3.767,10.85c-1.748-0.218-3.275-0.341-4.586-0.368c-1.31-0.027-2.184,0.178-2.619,0.613
		c-0.655,0.602-1.406,1.488-2.252,2.662c-0.471,0.652-0.91,1.306-1.33,1.958c-0.021-0.053-0.038-0.104-0.062-0.157
		c-0.52-1.173-1.38-2.211-2.579-3.111c-1.201-0.9-2.921-1.352-5.159-1.352c-1.801,0-3.453,0.614-4.954,1.843
		s-2.783,2.798-3.848,4.708c-1.064,1.912-1.884,4-2.457,6.265c-0.276,1.092-0.482,2.153-0.625,3.188
		c-0.371,0.501-0.756,1.016-1.176,1.561c-1.283,1.666-2.676,3.385-4.177,5.158c-1.501,1.775-3.07,3.521-4.708,5.241
		c-1.638,1.719-3.263,3.262-4.872,4.626c-1.61,1.365-3.126,2.471-4.544,3.316c-1.42,0.847-2.676,1.297-3.767,1.351
		c-0.983,0.056-1.925-0.082-2.825-0.409s-1.707-0.818-2.416-1.474c-0.71-0.655-1.256-1.446-1.638-2.375
		c-0.383-0.928-0.546-1.965-0.491-3.111c0.055-0.764,0.123-1.419,0.205-1.966c0.082-0.545,0.177-1.05,0.286-1.515
		c0.109-0.463,0.246-0.941,0.409-1.433c0.164-0.491,0.328-1.036,0.492-1.638c0.436,1.201,1.296,2.198,2.579,2.988
		c1.282,0.792,3.152,1.188,5.608,1.188c2.238,0,4.203-0.45,5.896-1.351c1.69-0.901,3.111-2.047,4.258-3.439
		c1.146-1.392,2.033-2.96,2.661-4.708c0.627-1.747,0.995-3.493,1.105-5.24c0-1.528-0.192-2.784-0.573-3.767
		c-0.383-0.982-0.833-1.746-1.352-2.293c-0.52-0.545-1.052-0.928-1.596-1.146c-0.547-0.218-1.012-0.327-1.393-0.327
		c-0.602-0.709-1.475-1.446-2.62-2.211c-1.146-0.764-2.348-1.46-3.603-2.088c-1.257-0.627-2.431-1.146-3.521-1.556
		c-1.093-0.41-1.856-0.614-2.293-0.614c-1.528,0.055-3.357,0.859-5.486,2.415s-4.163,3.631-6.1,6.224
		c-1.939,2.593-3.604,5.623-4.995,9.089c-0.813,2.023-1.381,4.129-1.719,6.311c-0.397,0.561-0.796,1.123-1.188,1.673
		c-0.929,1.31-1.884,2.648-2.866,4.013c-0.982,1.365-1.938,2.66-2.866,3.89c-0.929,1.228-1.801,2.361-2.62,3.397
		c-0.819,1.038-1.556,1.884-2.211,2.538c0.709-2.62,1.568-5.335,2.579-8.147c1.01-2.811,1.951-5.486,2.825-8.024
		c0.873-2.538,1.623-4.775,2.252-6.714c0.627-1.938,0.941-3.316,0.941-4.135c0-0.601-0.491-1.405-1.474-2.416
		c-0.982-1.01-2.103-2.006-3.357-2.989c-1.257-0.982-2.484-1.828-3.685-2.538c-1.201-0.709-2.048-1.064-2.538-1.064
		c-0.766,0-1.72,0.669-2.866,2.006c-1.146,1.339-2.416,3.059-3.808,5.159c-1.393,2.102-2.813,4.449-4.258,7.042
		c-1.447,2.593-2.825,5.173-4.135,7.738c0.654-1.692,1.269-3.316,1.842-4.873c0.573-1.555,1.092-2.96,1.556-4.217
		c0.464-1.255,0.832-2.306,1.106-3.152c0.272-0.846,0.409-1.404,0.409-1.679c0-0.381-0.356-0.968-1.064-1.76
		c-0.711-0.791-1.597-1.569-2.662-2.334c-1.064-0.764-2.225-1.446-3.48-2.047c-1.256-0.601-2.402-0.901-3.439-0.901
		c0,0.983-0.274,2.403-0.818,4.259c-0.547,1.855-1.229,3.93-2.047,6.223c-0.819,2.293-1.706,4.654-2.662,7.083
		c-0.02,0.048-0.037,0.094-0.056,0.143c-0.215,0.183-0.421,0.377-0.64,0.554c-1.146,0.929-2.321,1.691-3.521,2.293
		c-0.437,0.163-0.888,0.355-1.351,0.572c-0.464,0.219-0.997,0.409-1.597,0.573c1.364-3.002,1.992-5.212,1.883-6.632
		c-0.163-1.528-0.491-2.798-0.982-3.809c-0.492-1.009-1.079-1.842-1.761-2.497c-0.683-0.655-1.42-1.146-2.21-1.474
		c-0.792-0.328-1.597-0.573-2.416-0.737c-0.437-0.381-1.215-0.995-2.333-1.843c-1.12-0.845-2.362-1.69-3.726-2.538
		c-1.365-0.846-2.716-1.582-4.053-2.211c-1.338-0.627-2.443-0.941-3.316-0.941c-2.075,0-4.204,0.888-6.387,2.661
		c-2.184,1.774-4.122,4.054-5.813,6.837c-0.172,0.283-0.324,0.585-0.488,0.875c-0.071-0.143-0.134-0.279-0.208-0.424
		c-0.792-1.556-1.707-2.989-2.743-4.299c-1.037-1.311-2.184-2.347-3.438-3.112c-1.256-0.764-2.539-1.009-3.849-0.736
		c1.036-2.674,2.019-5.145,2.948-7.41c0.927-2.265,1.732-4.244,2.416-5.937c0.682-1.691,1.214-3.043,1.597-4.054
		c0.381-1.01,0.573-1.568,0.573-1.679c0-0.437-0.341-1.05-1.023-1.842c-0.684-0.791-1.556-1.624-2.62-2.498
		c-1.064-0.872-2.198-1.746-3.398-2.62c-1.201-0.872-2.333-1.609-3.398-2.211c-1.065-0.6-1.938-1.023-2.621-1.27
		c-0.683-0.245-1.023-0.176-1.023,0.205c0,1.093-0.26,2.716-0.778,4.872c-0.52,2.157-1.215,4.668-2.088,7.533
		c-0.874,2.866-1.897,5.991-3.071,9.376c-1.174,3.386-2.389,6.878-3.644,10.48c-3.167,0.655-6.469,1.324-9.908,2.007
		c-3.439,0.683-6.934,1.323-10.481,1.924c1.419-3.711,2.838-7.246,4.258-10.604c1.419-3.357,2.702-6.318,3.848-8.885
		c1.146-2.565,2.074-4.626,2.784-6.182c0.709-1.557,1.064-2.416,1.064-2.58c0-0.545-0.479-1.281-1.433-2.21
		c-0.956-0.928-2.102-1.855-3.439-2.784c-1.338-0.928-2.702-1.773-4.094-2.538s-2.497-1.311-3.316-1.639
		c-0.655-0.436-1.31-0.805-1.965-1.104s-1.201-0.451-1.638-0.451c-1.256,0-3.043,0.506-5.363,1.516
		c-2.321,1.011-4.927,2.238-7.82,3.685c-2.894,1.446-5.91,2.935-9.048,4.462c-3.14,1.529-6.128,2.825-8.966,3.89
		c-2.839,1.064-5.392,1.72-7.656,1.966c-2.265,0.245-3.971-0.205-5.118-1.352c-0.6,0.602-0.75,1.297-0.45,2.088
		c0.301,0.792,0.86,1.625,1.678,2.498c0.819,0.873,1.843,1.747,3.071,2.62s2.483,1.651,3.767,2.333
		c1.282,0.684,2.539,1.229,3.767,1.638c1.229,0.41,2.252,0.614,3.071,0.614c0.764,0,1.842-0.381,3.234-1.146
		c1.392-0.764,2.96-1.719,4.708-2.865c1.747-1.146,3.616-2.401,5.609-3.768c1.992-1.363,3.971-2.66,5.936-3.889
		c1.965-1.229,3.89-2.293,5.773-3.193c1.883-0.901,3.562-1.46,5.036-1.679c-0.602,2.239-1.351,4.641-2.252,7.205
		c-0.901,2.567-1.883,5.229-2.948,7.984c-1.065,2.757-2.198,5.541-3.398,8.352c-1.201,2.813-2.403,5.556-3.603,8.229
		c-6.169,0.765-11.832,1.078-16.991,0.941c-5.159-0.136-9.212-1.023-12.16-2.661c-0.217,0.547-0.41,1.093-0.573,1.638
		c-0.109,0.491-0.205,1.011-0.287,1.556c-0.082,0.546-0.068,1.12,0.041,1.72c0.055,0.602,0.382,1.556,0.982,2.866
		c0.6,1.31,1.569,2.579,2.907,3.808c1.337,1.228,3.153,2.225,5.445,2.988c2.293,0.765,5.212,0.9,8.761,0.409
		c0.819-0.054,2.975-0.437,6.469-1.146c-1.42,3.166-2.58,5.786-3.48,7.86c-0.901,2.075-1.351,3.33-1.351,3.767
		c0,1.256,0.532,2.688,1.597,4.299c1.064,1.609,2.387,3.125,3.971,4.545c1.583,1.418,3.329,2.62,5.24,3.603
		c1.91,0.982,3.712,1.474,5.405,1.474c-0.438-1.474-0.614-3.234-0.532-5.281c0.082-2.047,0.354-4.299,0.818-6.755
		c0.463-2.457,1.078-5.049,1.843-7.779c0.764-2.729,1.637-5.54,2.62-8.434c3.111-0.545,6.346-1.064,9.703-1.557
		c3.357-0.491,6.782-0.954,10.276-1.392c-0.929,2.566-1.897,5.295-2.907,8.188c-1.011,2.894-1.994,5.772-2.948,8.639
		c-0.956,2.866-1.871,5.649-2.743,8.352c-0.874,2.703-1.625,5.104-2.252,7.206c-0.628,2.101-1.133,3.834-1.515,5.199
		c-0.383,1.364-0.573,2.183-0.573,2.456c0,1.528,0.6,2.988,1.801,4.382c1.2,1.391,2.606,2.632,4.217,3.726
		c1.609,1.091,3.234,2.019,4.872,2.784c1.637,0.763,2.919,1.254,3.848,1.474c0.491,0.163,0.983,0.19,1.474,0.081
		c0.218,0,0.354-0.028,0.41-0.081c9.116-2.129,18.423-3.604,27.922-4.423c9.499-0.818,19.01-1.187,28.536-1.105
		c9.525,0.083,18.969,0.533,28.332,1.352c9.361,0.818,18.424,1.814,27.185,2.988c8.762,1.174,17.155,2.43,25.18,3.768
		c8.024,1.337,15.476,2.58,22.354,3.725c6.877,1.147,13.072,2.102,18.587,2.867c5.513,0.764,10.18,1.146,14.002,1.146
		c2.564,0,5.24-0.383,8.024-1.146c2.784-0.766,5.322-1.842,7.615-3.234c2.293-1.392,4.188-3.071,5.69-5.035
		c1.501-1.966,2.252-4.124,2.252-6.47c0.054-0.219,0.259-0.52,0.614-0.9c0.354-0.383,0.736-0.792,1.146-1.229
		c0.41-0.438,0.778-0.848,1.106-1.229c0.327-0.383,0.518-0.71,0.573-0.982c0.327-1.692,0.503-3.193,0.532-4.503
		C293.845,179.15,293.749,177.908,293.531,176.735z M216.232,154.995c1.965-2.02,3.767-4.013,5.404-5.978
		c0.621-0.744,1.202-1.458,1.763-2.155c0.244,1.337,0.512,2.682,0.816,4.038c0.354,1.584,0.668,3.1,0.942,4.545
		c0.272,1.446,0.409,2.661,0.409,3.644s-0.246,1.856-0.737,2.62c-0.491,0.765-1.119,1.393-1.884,1.883
		c-0.765,0.492-1.623,0.86-2.579,1.106c-0.954,0.245-1.896,0.368-2.824,0.368c-0.928,0-1.46-0.246-1.597-0.736
		c-0.137-0.492-0.109-1.064,0.081-1.72c0.192-0.655,0.383-1.311,0.573-1.966c0.191-0.655,0.151-1.118-0.122-1.392
		c-0.273-0.272-1.024-0.437-2.252-0.491c-0.644-0.028-1.307,0.003-1.986,0.086C213.57,157.643,214.901,156.363,216.232,154.995z
		 M198.382,137.268c1.364-1.72,2.715-3.125,4.054-4.218c1.337-1.091,2.565-1.909,3.685-2.456c1.118-0.545,1.951-0.819,2.497-0.819
		c0.601,0,1.064,0.164,1.392,0.491c-0.327,1.311-0.846,2.784-1.555,4.422c-0.711,1.638-1.584,3.181-2.621,4.627
		c-1.037,1.447-2.225,2.648-3.562,3.603c-1.339,0.956-2.798,1.434-4.381,1.434c-0.765,0-1.392-0.082-1.883-0.246
		s-0.874-0.382-1.146-0.655C195.844,141.048,197.017,138.986,198.382,137.268z M120,139.232c0-0.246-0.509-0.504-0.399-0.777
		c1.528-1.747,2.749-3.03,4.222-3.85c0.709,0.11,1.264,0.41,1.947,0.901c0.682,0.491,1.035,1.365,1.199,2.62
		c0.109,0.818-0.145,2.047-0.69,3.685c-0.546,1.638-1.301,3.438-2.229,5.404c-0.546-0.327-1.114-0.749-1.687-1.269
		c-0.573-0.519-1.11-1.092-1.602-1.72s-0.354-1.311-0.709-2.048c-0.355-0.736-0.053-1.459-0.053-2.17
		C120,139.737,120,139.478,120,139.232z M110.973,151.72c1.009-2.948,2.388-5.731,4.135-8.353c0.328,0.818,0.708,1.57,1.146,2.252
		c0.437,0.684,0.873,1.298,1.311,1.843c0.655,0.765,1.364,1.474,2.129,2.129c0.764,0.655,1.528,1.201,2.292,1.638
		c-0.818,1.474-1.693,2.894-2.62,4.258c-0.929,1.365-1.871,2.566-2.825,3.603c-0.956,1.038-1.912,1.871-2.866,2.497
		c-0.956,0.628-1.871,0.941-2.743,0.941c-0.219,0-0.397-0.096-0.532-0.286c-0.137-0.191-0.246-0.422-0.328-0.695
		c-0.082-0.273-0.137-0.546-0.164-0.819c-0.028-0.272-0.041-0.491-0.041-0.655C109.593,157.451,109.962,154.668,110.973,151.72z"/>
	<path fill="#DB3A34" d="M271.201,160.547c0.063-0.141,0.437-0.427,1.12-0.858c0.682-0.432,1.509-0.873,2.477-1.325
		c0.968-0.45,2.026-0.893,3.176-1.324s2.226-0.748,3.229-0.95c1.002-0.202,1.88-0.27,2.635-0.203s1.228,0.355,1.42,0.866
		c0.287,0.767,0.411,1.988,0.372,3.666c-0.041,1.678-0.219,3.376-0.534,5.099s-0.744,3.297-1.286,4.726
		c-0.543,1.429-1.196,2.286-1.963,2.574s-1.636,0.497-2.606,0.63c-0.972,0.131-1.907,0.161-2.808,0.093
		c-0.901-0.07-1.711-0.247-2.431-0.53c-0.718-0.284-1.184-0.706-1.396-1.27c-0.211-0.562-0.436-1.396-0.677-2.501
		c-0.239-1.104-0.447-2.237-0.621-3.396c-0.172-1.159-0.273-2.243-0.304-3.254C270.977,161.58,271.041,160.899,271.201,160.547z"/>
</g>
</svg>
